<svg width="360" height="45" viewBox="0 0 360 45" fill="none" xmlns="http://www.w3.org/2000/svg">
<path d="M256.521 15.5859C259.499 12.9719 262.195 11.6649 264.621 11.6649C265.798 11.6649 266.732 11.8348 267.422 12.1812L267.357 21.2256C265.614 20.6048 263.938 20.2911 262.333 20.2911C259.907 20.2911 258.697 21.3955 258.697 23.5913V24.003V30.721V44.3791H248.315V21.2648C248.315 17.1347 248.006 14.1417 247.381 12.2857H252.99C254.305 12.9 255.482 14.0044 256.521 15.5859Z" fill="white"/>
<path d="M348.783 35.7137V30.7602H347.225C345.285 30.7602 344.318 32.0999 344.318 34.7857C344.318 36.5763 344.904 37.4716 346.081 37.4716C346.981 37.4716 347.744 37.0599 348.369 36.23L348.783 35.7137ZM360 44.3857H354.701C353.524 43.7648 352.55 42.8042 351.794 41.4972L351.17 42.118C349.23 44.0458 346.633 45.0065 343.378 45.0065C337.566 45.0065 334.653 41.9808 334.653 35.9228C334.653 28.2834 338.46 24.467 346.074 24.467H348.776V23.0227C348.776 20.8204 347.567 19.7226 345.14 19.7226C342.372 19.7226 339.394 20.6505 336.211 22.5065V13.73C340.156 12.3511 343.858 11.6649 347.323 11.6649C355.213 11.6649 359.165 15.0697 359.165 21.8857V35.4066C359.172 39.4648 359.448 42.4578 360 44.3857Z" fill="white"/>
<path d="M323.028 28.2835C323.028 22.8464 322.436 20.1278 321.266 20.1278C320.779 20.1278 320.122 20.4023 319.293 20.9512L318.57 21.572V35.0929L319.293 35.6092C319.918 36.23 320.575 36.5372 321.266 36.5372C322.443 36.5372 323.028 33.7859 323.028 28.2835ZM333.515 28.2835C333.515 39.4322 330.399 45.0065 324.165 45.0065C321.739 45.0065 319.109 43.7649 316.275 41.2881C315.374 42.667 314.263 43.6995 312.955 44.3857H307.241C307.866 42.8042 308.175 39.8112 308.175 35.4066V0H318.557V13.5209C320.562 12.2793 322.436 11.665 324.165 11.665C330.405 11.665 333.515 17.2067 333.515 28.2835Z" fill="white"/>
<path d="M305.17 12.2858V44.3857H294.781V12.2858H305.17Z" fill="white"/>
<path d="M306.518 0L301.218 9.28623H294.781L299.562 0H306.518Z" fill="white"/>
<path d="M281.592 35.7137V30.7602H279.928C278.061 30.7602 277.127 32.0999 277.127 34.7857C277.127 36.5763 277.68 37.4716 278.791 37.4716C279.757 37.4716 280.559 37.0599 281.178 36.23L281.592 35.7137ZM292.809 44.3857H287.509C286.398 43.9021 285.432 42.9414 284.603 41.4972L283.873 42.118C281.934 44.0458 279.369 45.0065 276.187 45.0065C270.375 45.0065 267.462 41.9808 267.462 35.9228C267.462 28.2834 271.236 24.467 278.784 24.467H281.585V23.0227C281.585 20.8204 280.336 19.7226 277.844 19.7226C275.004 19.7226 272.064 20.6505 269.014 22.5065V13.73C272.959 12.3511 276.66 11.6649 280.126 11.6649C288.016 11.6649 291.967 15.0697 291.967 21.8857V35.4066C291.98 39.4648 292.257 42.4578 292.809 44.3857Z" fill="white"/>
<path d="M234.343 35.7137V30.7602H232.68C230.812 30.7602 229.872 32.0999 229.872 34.7857C229.872 36.5763 230.424 37.4716 231.536 37.4716C232.502 37.4716 233.304 37.0599 233.922 36.23L234.343 35.7137ZM245.554 44.3857H240.254C239.15 43.9021 238.176 42.9414 237.348 41.4972L236.618 42.118C234.751 44.0458 232.187 45.0065 228.932 45.0065C223.119 45.0065 220.207 41.9808 220.207 35.9228C220.207 28.2834 223.981 24.467 231.529 24.467H234.33V23.0227C234.33 20.8204 233.12 19.7226 230.694 19.7226C227.788 19.7226 224.809 20.6505 221.765 22.5065V13.73C225.71 12.3511 229.412 11.6649 232.877 11.6649C240.767 11.6649 244.719 15.0697 244.719 21.8857V35.4066C244.725 39.4648 245.001 42.4578 245.554 44.3857Z" fill="white"/>
<path d="M210.147 15.2788C210.147 11.1487 208.516 9.08365 205.268 9.08365H203.604V21.572H205.472C208.588 21.572 210.147 19.4743 210.147 15.2788ZM220.009 15.2788C220.009 25.4669 215.196 30.5577 205.57 30.5577H203.598V44.3857H193.216V0H205.261C215.091 0 220.009 5.09076 220.009 15.2788Z" fill="white"/>
<path d="M173.971 38.0859V34.4917H172.767C171.413 34.4917 170.736 35.4654 170.736 37.4128C170.736 38.7133 171.137 39.3602 171.939 39.3602C172.642 39.3602 173.195 39.0596 173.596 38.4649L173.971 38.0859ZM182.104 44.3726H178.185C177.33 43.9217 176.627 43.2224 176.075 42.2749L175.621 42.7258C174.214 44.1243 172.353 44.8235 170.045 44.8235C165.831 44.8235 163.72 42.6277 163.72 38.2362C163.72 32.6945 166.455 29.9302 171.932 29.9302H173.964V28.8846C173.964 27.2901 173.063 26.4863 171.255 26.4863C169.197 26.4863 167.06 27.1594 164.851 28.5056V22.1405C167.711 21.1407 170.4 20.644 172.912 20.644C178.639 20.644 181.499 23.1142 181.499 28.0547V37.8637C181.499 41.0071 181.696 43.1767 182.104 44.3726Z" fill="white"/>
<path d="M154.686 37.6351V27.8326L154.232 27.3817C153.529 26.9831 153.029 26.7805 152.727 26.7805C151.872 26.7805 151.444 28.7541 151.444 32.6947C151.444 36.6875 151.872 38.6807 152.727 38.6807C153.128 38.6807 153.627 38.4585 154.232 38.0076L154.686 37.6351ZM162.898 44.3727H158.828C157.822 43.9218 156.994 43.1768 156.343 42.1247C154.232 43.9218 152.326 44.8171 150.616 44.8171C146.099 44.8171 143.837 40.7719 143.837 32.6881C143.837 24.6566 146.099 20.6376 150.616 20.6376C151.924 20.6376 153.279 21.0885 154.686 21.9838V12.1813H162.215V37.8573C162.221 40.8569 162.445 43.0265 162.898 44.3727Z" fill="white"/>
<path d="M123.79 44.3857V0H134.178V44.3857H123.79Z" fill="white"/>
<path d="M110.494 35.7137V30.7602H108.936C107.069 30.7602 106.135 32.0999 106.135 34.7857C106.135 36.5763 106.687 37.4716 107.799 37.4716C108.699 37.4716 109.462 37.0599 110.08 36.23L110.494 35.7137ZM121.817 44.3857H116.419C115.242 43.7648 114.275 42.8042 113.512 41.4972L112.888 42.118C110.948 44.0458 108.384 45.0065 105.201 45.0065C99.3167 45.0065 96.371 41.9808 96.371 35.9228C96.371 28.2834 100.178 24.467 107.792 24.467H110.494V23.0227C110.494 20.8204 109.285 19.7226 106.858 19.7226C104.09 19.7226 101.112 20.6505 97.9293 22.5065V13.73C102.085 12.3511 105.819 11.6649 109.146 11.6649C116.971 11.6649 120.883 15.0697 120.883 21.8857V35.4066C120.883 39.5302 121.192 42.5232 121.817 44.3857Z" fill="white"/>
<path d="M79.9664 22.4999V44.3791H69.5843V21.2648C69.5843 17.1347 69.2753 14.1417 68.6506 12.2857H74.2592C75.5742 12.9719 76.8564 14.1809 78.0991 15.8996C81.5576 13.0765 84.6084 11.6649 87.2384 11.6649C92.1566 11.6649 94.6091 15.0043 94.6091 21.6765V44.3857H84.1219V22.4999C84.1219 21.1929 83.8128 20.5394 83.1882 20.5394C82.7016 20.5394 81.9389 20.9185 80.9001 21.6765L79.9664 22.4999Z" fill="white"/>
<path d="M56.5988 15.5859C59.5773 12.9719 62.2731 11.6649 64.6993 11.6649C65.8763 11.6649 66.8099 11.8348 67.5003 12.1812L67.4346 21.2256C65.6922 20.6048 64.0155 20.2911 62.4112 20.2911C59.9916 20.2911 58.7752 21.3955 58.7752 23.5913V24.003V30.721V44.3791H48.3931V21.2648C48.3931 17.1347 48.084 14.1417 47.4594 12.2857H53.068C54.383 12.9 55.5599 14.0044 56.5988 15.5859Z" fill="white"/>
<path d="M35.6241 28.2834C35.6241 22.2974 34.8943 19.3043 33.4412 19.3043C31.9881 19.3043 31.2583 22.2974 31.2583 28.2834C31.2583 34.3414 31.9881 37.3671 33.4412 37.3671C34.8943 37.3671 35.6241 34.3348 35.6241 28.2834ZM46.2166 28.2834C46.2166 39.4321 41.956 45.0065 33.4412 45.0065C24.9264 45.0065 20.6658 39.4321 20.6658 28.2834C20.6658 17.2066 24.9264 11.6649 33.4412 11.6649C41.956 11.6649 46.2166 17.2066 46.2166 28.2834Z" fill="white"/>
<path d="M7.6863 0H18.0684V36.0209C18.0684 41.9416 14.5704 44.8954 7.58109 44.8954C6.19375 44.8954 3.66891 44.6536 0 44.1701V34.4721C1.4531 34.8185 2.97852 34.9884 4.5697 34.9884C6.64743 34.9884 7.6863 33.9559 7.6863 31.8908V0Z" fill="white"/>
</svg>
